# Blender 5.0.0
# www.blender.org
mtllib TEST_MASSING.mtl
o Cube
v -20.441702 0.072298 20.441702
v -20.441702 53.607399 20.441702
v -20.441702 0.072298 -20.441702
v -20.441702 53.607399 -20.441702
v 20.441702 0.072298 20.441702
v 26.763569 53.138798 20.441702
v 20.441702 0.072298 -20.441702
v 26.763569 58.181236 -20.441702
v 7.741216 0.072298 -20.441702
v 15.510416 64.069267 -20.441702
v 7.741216 0.072298 20.441702
v 15.510416 59.026829 20.441702
v -20.607265 38.494072 19.802002
v -25.750828 30.382883 -20.300991
v 19.489071 38.205605 -23.490463
v 20.441702 38.320751 20.441702
v 7.741016 38.505150 20.449707
v 6.788585 38.205605 -23.490463
v -20.441702 13.095842 -20.441702
v 26.337660 14.924721 -20.441702
v 20.441702 14.924721 20.441702
v 7.741216 14.924721 20.441702
v 7.741216 14.924721 -20.441702
v -20.441702 13.095842 20.441702
v -33.743183 13.095842 20.441702
v -33.577419 35.232521 20.462749
v -33.490261 26.821089 -19.583673
v -33.743183 13.095842 -20.441702
v -20.441702 13.095842 26.154169
v -20.781981 38.845032 25.353464
v 7.741421 38.833942 26.146164
v 7.741216 14.924721 26.154169
v -33.743183 13.095842 26.154169
v -33.403111 35.680573 26.127356
v -20.441702 0.072298 -6.436628
v -20.441702 53.607399 -6.436628
v 20.441702 0.072298 -6.436628
v 26.763569 58.181236 -6.436628
v 15.510416 64.069267 -6.436628
v 7.741216 0.072298 -6.436628
v 20.441702 38.320751 -6.436628
v -25.750828 33.147884 -6.571575
v -20.441702 13.095842 -6.436628
v 26.337660 14.924721 -6.436628
v -33.490261 29.586090 -5.854255
v -33.743183 13.095842 -6.436628
v -22.429623 62.135944 -6.436628
v -22.429623 62.135944 -20.441702
v 10.272259 80.373062 -20.441702
v 10.272259 80.373062 -6.436628
v 34.609802 14.924722 -19.825809
v 34.609802 0.072298 -19.825809
v 31.006618 0.072298 -6.292180
v 24.091436 14.924722 19.681364
v 24.091436 0.072298 19.681364
v 31.006618 14.924722 -6.292180
vn -0.9714 0.2361 -0.0235
vn 0.0299 0.1215 -0.9921
vn 0.9390 -0.3424 -0.0321
vn -0.0087 -0.0158 0.9998
vn -0.0000 -1.0000 -0.0000
vn -0.2148 0.9724 0.0912
vn 0.4573 0.8740 0.1640
vn 0.0004 0.0001 1.0000
vn -0.0672 0.0781 -0.9947
vn -0.0400 -0.0776 -0.9962
vn 0.0003 -0.0002 1.0000
vn -0.2466 0.9667 -0.0689
vn 0.9863 0.1243 0.1082
vn -0.0000 -0.1298 -0.9915
vn 0.0015 0.9982 -0.0603
vn -1.0000 -0.0000 -0.0000
vn -0.0000 -0.0000 -1.0000
vn -0.0000 -0.0000 1.0000
vn -0.9999 0.0168 -0.0017
vn -0.4250 0.8874 -0.1787
vn -0.0384 0.0259 -0.9989
vn -0.0145 0.0162 0.9998
vn 0.0277 0.0171 0.9995
vn 1.0000 -0.0000 -0.0000
vn -0.9998 0.0113 0.0149
vn 0.0648 -0.9979 -0.0000
vn -0.3185 0.9336 -0.1642
vn -0.9999 0.0109 -0.0028
vn 0.0548 -0.0109 -0.9984
vn 0.9647 0.2614 -0.0306
vn 0.4636 0.8860 -0.0000
vn -0.9739 -0.2270 -0.0000
vn 0.9467 -0.3210 -0.0278
vn -0.9854 0.1499 0.0801
vn -0.4871 0.8734 -0.0000
vn 0.9521 0.3059 -0.0000
vn 0.9663 -0.0000 0.2573
vn 0.2039 -0.0000 0.9790
vn -0.0000 1.0000 -0.0000
vt 0.531620 0.164360
vt 0.625000 0.164360
vt 0.625000 0.250000
vt 0.531620 0.250000
vt 0.531620 0.422337
vt 0.625000 0.422337
vt 0.625000 0.500000
vt 0.531620 0.500000
vt 0.531620 0.585640
vt 0.625000 0.585640
vt 0.625000 0.750000
vt 0.531620 0.750000
vt 0.531620 0.827663
vt 0.625000 0.827663
vt 0.625000 1.000000
vt 0.531620 1.000000
vt 0.297337 0.585640
vt 0.375000 0.585640
vt 0.375000 0.750000
vt 0.297337 0.750000
vt 0.702663 0.585640
vt 0.875000 0.585640
vt 0.875000 0.750000
vt 0.702663 0.750000
vt 0.125000 0.585640
vt 0.125000 0.750000
vt 0.435818 0.250000
vt 0.435818 0.422337
vt 0.435818 0.750000
vt 0.435818 0.827663
vt 0.531620 0.000000
vt 0.435818 0.585640
vt 0.435818 0.500000
vt 0.375000 0.164360
vt 0.435818 0.164360
vt 0.375000 0.250000
vt 0.375000 0.422337
vt 0.375000 0.500000
vt 0.375000 0.827663
vt 0.435818 1.000000
vt 0.375000 1.000000
vt 0.435818 0.000000
vt 0.375000 0.000000
vt 0.125000 0.500000
vt 0.297337 0.500000
vt 0.702663 0.500000
vt 0.625000 0.000000
vt 0.875000 0.500000
s 0
f 42/1/1 36/2/1 4/3/1 14/4/1
f 18/5/2 10/6/2 8/7/2 15/8/2
f 41/9/3 38/10/3 6/11/3 16/12/3
f 17/13/4 12/14/4 2/15/4 13/16/4
f 40/17/5 37/18/5 5/19/5 11/20/5
f 39/21/6 36/22/6 2/23/6 12/24/6
f 38/10/7 39/21/7 12/24/7 6/11/7
f 35/25/5 40/17/5 11/20/5 1/26/5
f 16/12/8 6/11/8 12/14/8 17/13/8
f 14/4/9 4/3/9 10/6/9 18/5/9
f 19/27/10 14/4/10 18/5/10 23/28/10
f 21/29/11 16/12/11 17/13/11 22/30/11
f 13/31/12 26/31/12 34/31/12 30/31/12
f 44/32/13 41/9/13 16/12/13 21/29/13
f 23/28/14 18/5/14 15/8/14 20/33/14
f 17/13/15 13/16/15 30/16/15 31/13/15
f 35/34/16 43/35/16 19/27/16 3/36/16
f 9/37/17 23/28/17 20/33/17 7/38/17
f 5/19/5 37/18/5 53/18/5 55/19/5
f 11/39/18 22/30/18 24/40/18 1/41/18
f 5/19/18 21/29/18 22/30/18 11/39/18
f 3/36/17 19/27/17 23/28/17 9/37/17
f 46/35/19 45/1/19 27/4/19 28/27/19
f 42/1/20 14/4/20 27/4/20 45/1/20
f 43/35/5 24/42/5 25/42/5 46/35/5
f 14/4/21 19/27/21 28/27/21 27/4/21
f 32/30/22 31/13/22 30/16/22 29/40/22
f 29/40/23 30/16/23 34/16/23 33/40/23
f 22/30/24 17/13/24 31/13/24 32/30/24
f 26/31/25 25/42/25 33/42/25 34/31/25
f 25/42/5 24/42/5 29/42/5 33/42/5
f 24/40/26 22/30/26 32/30/26 29/40/26
f 19/27/5 43/35/5 46/35/5 28/27/5
f 13/31/27 42/1/27 45/1/27 26/31/27
f 25/42/28 26/31/28 45/1/28 46/35/28
f 7/38/29 20/33/29 51/33/29 52/38/29
f 1/43/16 24/42/16 43/35/16 35/34/16
f 20/33/30 15/8/30 41/9/30 44/32/30
f 3/44/5 9/45/5 40/17/5 35/25/5
f 8/7/31 10/46/31 39/21/31 38/10/31
f 4/3/32 36/2/32 47/2/32 48/3/32
f 9/45/5 7/38/5 37/18/5 40/17/5
f 15/8/33 8/7/33 38/10/33 41/9/33
f 13/31/34 2/47/34 36/2/34 42/1/34
f 49/46/35 48/48/35 47/22/35 50/21/35
f 10/6/17 4/3/17 48/3/17 49/6/17
f 39/21/36 10/46/36 49/46/36 50/21/36
f 36/22/18 39/21/18 50/21/18 47/22/18
f 53/18/37 56/32/37 54/29/37 55/19/37
f 52/38/37 51/33/37 56/32/37 53/18/37
f 21/29/38 5/19/38 55/19/38 54/29/38
f 20/33/39 44/32/39 56/32/39 51/33/39
f 37/18/5 7/38/5 52/38/5 53/18/5
f 44/32/39 21/29/39 54/29/39 56/32/39
